<?xml version="1.0" encoding="UTF-8" standalone="no"?>
<!-- Created with Inkscape (http://www.inkscape.org/) -->

<svg
   version="1.1"
   id="svg1"
   width="1659"
   height="1659"
   viewBox="0 0 1659 1659"
   sodipodi:docname="logoCuentaMorosos.svg"
   inkscape:export-filename="Gemini_Generated_Image_lvoz4elvoz4elvoz.svg"
   inkscape:export-xdpi="96"
   inkscape:export-ydpi="96"
   inkscape:version="1.4.3 (0d15f75042, 2025-12-25)"
   xmlns:inkscape="http://www.inkscape.org/namespaces/inkscape"
   xmlns:sodipodi="http://sodipodi.sourceforge.net/DTD/sodipodi-0.dtd"
   xmlns="http://www.w3.org/2000/svg"
   xmlns:svg="http://www.w3.org/2000/svg">
  <sodipodi:namedview
     id="namedview1"
     pagecolor="#ffffff"
     bordercolor="#000000"
     borderopacity="0.25"
     inkscape:showpageshadow="2"
     inkscape:pageopacity="0.0"
     inkscape:pagecheckerboard="0"
     inkscape:deskcolor="#d1d1d1"
     inkscape:zoom="0.16260472"
     inkscape:cx="4341.8173"
     inkscape:cy="1110.0539"
     inkscape:window-width="1920"
     inkscape:window-height="971"
     inkscape:window-x="0"
     inkscape:window-y="0"
     inkscape:window-maximized="1"
     inkscape:current-layer="g1">
    <inkscape:page
       x="0"
       y="0"
       width="1659"
       height="1659"
       id="page2"
       margin="0"
       bleed="0" />
  </sodipodi:namedview>
  <defs
     id="defs1" />
  <g
     inkscape:groupmode="layer"
     inkscape:label="Image"
     id="g1">
    <path
       style="fill:#00c658;fill-opacity:1"
       d="M 1660.3553,826.75448 V -2.7449063 L 830.60533,-2.9961063 0.85548071,-3.2473163 831.10533,-3.4967063 1661.3553,-3.7461064 V 826.25388 1656.2539 h -0.5 -0.5 z m -832.99997,274.35952 -12.5,-11.1234 -16,-14.0818 -16,-14.0818 -10,-9.1739 -10,-9.1739 -20.99997,-18.7073 -21,-18.7074 -15.3963,-13.65531 -15.3962,-13.65531 -16.1038,-14.37567 -16.1036,-14.37566 -0.3334,-0.87434 -0.3333,-0.87433 h 50.0832 50.08337 v -0.68555 -0.68555 l -1.9291,-2.06445 -1.929,-2.06445 -6.53597,-9.5 -6.5359,-9.5 -4.8766,-7 -4.8766,-7 -15.8063,-22.5 -15.8062,-22.5 -21.0269,-29.5 -21.0267,-29.5 -6.4489,-8.78088 -6.4488,-8.78088 -1.8765,-3.68056 -1.8764,-3.68056 -0.01,-8.53856 -0.01,-8.53856 -1.4448,-9.58386 -1.4447,-9.58385 -3.1615,-9.91615 -3.1614,-9.91614 -4.8999,-10.42295 -4.9,-10.42294 -6.5833,-9.88892 -6.5833,-9.88892 -9.0197,-9.4348 -9.0198,-9.43481 -9.1349,-7.41209 -9.135,-7.41209 -11.5,-7.66669 -11.5,-7.6667 -19,-9.44363 -19,-9.44363 -16.5,-5.41204 -16.5,-5.41204 -8.38,-2.12336 -8.38,-2.12337 -11.62,-2.35782 -11.62,-2.35783 -11,-1.56887 -11,-1.56887 -12.7729,-1.05901 -12.773,-1.05901 -1.727,-0.6118 -1.7268,-0.61181 -1.75,-1.50299 -1.75,-1.50299 v -20.34501 -20.34501 h 128.3256 128.3257 l 2.0239,2.25 2.0239,2.25 11.4004,16.78097 11.4005,16.78097 18.2209,26.71903 18.2211,26.71903 13.7789,20.24976 13.779,20.24976 9,13.26437 9,13.26436 12.47007,17.98588 12.4701,17.98587 16.5574,24.5 16.5574,24.5 11.6417,17.13743 11.6417,17.13743 4.6752,6.36257 4.6753,6.36257 0.3437,0.35481 0.3436,0.35481 7.4564,-11.35481 7.45634,-11.35481 9.2687,-13.5 9.2688,-13.5 9.5443,-14 9.5443,-14 5.8659,-8.5 5.8659,-8.5 13.1766,-19.27956 13.1766,-19.27956 7.2622,-10.72044 7.2622,-10.72044 15.5369,-22.5 15.5369,-22.5 10.8936,-16 10.89369,-16 12.80714,-18.76991 12.8073,-18.76991 7.536,-10.73009 7.5361,-10.73009 128.7139,-0.25377 128.714,-0.25378 v 19.56952 19.56951 l -0.9618,1.79711 -0.9618,1.79711 -2.7882,1.06546 -2.7882,1.06547 -13.5,1.1647 -13.5,1.16471 -10,1.44006 -10,1.44006 -14,2.95346 -14,2.95347 -9,2.45853 -9,2.45853 -13,4.60401 -13,4.60402 -5,2.17857 -5,2.17858 -11.5,5.75724 -11.5,5.75725 -10.8146,6.79673 -10.8146,6.79673 -8.6461,6.46783 -8.6461,6.46784 -8.8305,8.40341 -8.8306,8.40342 -6.302,7.59711 -6.302,7.59711 -4.5001,7 -4.5,7 -2.0699,3.5 -2.0698,3.5 -3.5468,8.59655 -3.5467,8.59654 -2.602,8.90346 -2.602,8.90345 -1.4186,10.5 -1.4186,10.5 -0.019,6.48565 -0.02,6.48564 -2.5444,5.01436 -2.5444,5.01435 -6.7056,9.13684 -6.7057,9.13685 -5.2601,7.36315 -5.2601,7.36316 -18.41353,26 -18.4136,26 -1.9277,2.5 -1.9278,2.5 -5.8561,8.5 -5.856,8.5 -13.3,18.5 -13.2999,18.5 -4.4925,6.16772 -4.4925,6.16773 v 0.58227 0.58228 h 50.5 50.49993 l -0.054,0.75 -0.053,0.75 -19.5948,17 -19.59453,17 -12.1709,11 -12.1709,11.00002 -9.5194,8.5 -9.5194,8.5 -7.9115,6.9996 -7.9114,6.9996 -7,6.5155 -7,6.5155 -15.5,13.5925 -15.5,13.5926 -13.3362,12.1334 -13.3362,12.1334 -6.27474,5.5089 -6.2747,5.5089 -0.3891,-0.01 -0.3891,-0.01 z m -443.33327,8.4731 -0.6666,-0.6666 V 857.08721 605.25388 h 2.4224 2.4225 l 16.5216,3.96794 16.5215,3.96794 12.3602,4.0212 12.3602,4.0212 12.2797,5.51178 12.2798,5.51177 10.666,6.12085 10.6661,6.12086 9.5,6.51417 9.5,6.51417 5,4.25258 5,4.25258 7.2774,7.40143 7.2775,7.40142 5.5496,7.46006 5.5495,7.46005 5.0239,8.30596 5.0239,8.30596 3.3976,8.426 3.3977,8.42599 2.4918,9.5904 2.4918,9.59041 1.0277,18.00302 1.0277,18.00303 1.3642,3.17462 1.3642,3.17461 3.8677,5.13587 3.8678,5.13587 17,20.72948 17,20.72949 7.7846,9.63464 7.7847,9.63465 2.4653,4.94634 2.4654,4.94635 v 3.22693 3.22693 l -2.5285,3.00488 -2.5284,3.00488 -4.2216,1.55466 -4.2215,1.55466 -11.8126,1.49804 -11.8125,1.49805 -4.1875,1.87396 -4.1874,1.87396 -1.7119,1.93178 -1.7119,1.93178 -1.7661,3.9634 -1.7662,3.9634 -0.6245,29.5 -0.6245,29.5 -2.1575,6.65236 -2.1575,6.65235 -3.5969,5.34765 -3.597,5.34764 -3.143,2.75717 -3.143,2.75718 -4.5,2.09136 -4.5,2.0914 -5.5,1.96121 -5.5,1.9612 -9,1.8586 -9,1.8587 -7,0.6145 -7,0.6145 -15.5,0.9031 -15.5,0.9031 -4.3404,1.5515 -4.3403,1.5515 -3.9475,3.1265 -3.9475,3.1265 -2.0955,4.1075 -2.0955,4.1076 -1.0481,3.0284 -1.048,3.0285 -0.5686,36.3381 -0.5686,36.3382 -2.8058,2.4118 -2.8058,2.4118 h -33.2775 -33.2776 z m 843.64864,-0.3403 -2.1847,-0.8802 -1.3153,-2.3064 -1.3154,-2.3064 -0.5,-36.5 -0.5,-36.4999 -2.583,-5.5061 -2.583,-5.5061 -3.4058,-3.4057 -3.4058,-3.4058 -4.5112,-2.0018 -4.5112,-2.0017 -15.5,-0.8298 -15.5,-0.8298 -11,-1.0031 -11,-1.0032 -9.5,-2.546 -9.5,-2.5459 -6.8012,-3.12911 -6.8012,-3.12917 -5.3016,-5.72643 -5.3017,-5.72643 -2.6037,-6.50388 -2.6037,-6.50387 -1.0434,-8.32183 -1.0435,-8.32183 -0.01,-22.52624 -0.01,-22.52623 -1.0609,-3.82078 -1.061,-3.82078 -3.5446,-3.9235 -3.5447,-3.9235 -4.7813,-1.41989 -4.7812,-1.41989 -9.8576,-1.13653 -9.8575,-1.13652 -4.2639,-1.08317 -4.264,-1.08317 -2.986,-3.40093 -2.9861,-3.40093 0.01,-2.71521 0.01,-2.7152 2.3642,-5 2.3643,-5 4.876,-6.18841 4.876,-6.1884 17.9775,-22.3116 17.9776,-22.31159 5.0799,-6.03645 5.0798,-6.03644 2.3417,-4.8372 2.3416,-4.83719 0.7845,-17.12636 0.7845,-17.12636 1.6323,-7.873 1.6323,-7.87299 2.5604,-7.12701 2.5603,-7.127 3.7696,-7.5 3.7697,-7.5 5.9749,-9 5.9749,-9 6.6516,-7.6891 6.6516,-7.6891 9.2277,-7.74496 9.2276,-7.74496 11,-7.2214 11,-7.22141 9.0749,-4.91787 9.0749,-4.91787 11.4251,-5.07721 11.4251,-5.07721 10,-3.47841 10,-3.47841 18.1309,-4.62105 18.1392,-4.62104 h 3.2103 3.2103 l -0.2581,251.25 -0.2581,251.24992 -0.4401,1.25 -0.4401,1.25 -32.643,-0.063 -32.643,-0.063 z"
       id="path238" />
  </g>
</svg>
